<svg width="1214" height="343" viewBox="0 0 1214 343" fill="none" xmlns="http://www.w3.org/2000/svg">
<path d="M39.5742 234.658C40.5508 244.424 41.0391 256.631 41.0391 271.279V331.777C41.0391 339.004 38.1582 342.617 32.3965 342.617H14.2324C8.08008 342.617 5.00391 338.809 5.00391 331.191V169.033C5.00391 141.592 3.53906 121.572 0.609375 108.975C0.316406 107.705 0.169922 105.947 0.169922 103.701C0.169922 101.455 1.04883 99.4043 2.80664 97.5488C4.66211 95.6934 7.00586 94.7656 9.83789 94.7656H18.7734C24.1445 94.7656 27.9531 97.1094 30.1992 101.797C32.8359 107.266 34.8379 114.346 36.2051 123.037C43.041 111.123 52.3672 102.432 64.1836 96.9629C72.582 93.0566 82.1035 91.1035 92.748 91.1035C103.49 91.1035 113.061 93.2031 121.459 97.4023C129.857 101.504 136.84 107.168 142.406 114.395C153.441 128.75 158.959 147.988 158.959 172.109C158.959 197.305 152.758 218.594 140.355 235.977C127.27 254.434 110.131 263.662 88.9395 263.662C66.8691 263.662 50.4141 253.994 39.5742 234.658ZM37.6699 182.656C37.6699 196.719 42.3574 208.828 51.7324 218.984C60.6191 228.555 70.6777 233.34 81.9082 233.34C96.0684 233.34 106.566 226.455 113.402 212.686C118.871 201.748 121.605 187.93 121.605 171.23C121.605 157.754 118.383 146.328 111.938 136.953C105.004 126.797 95.7754 121.719 84.252 121.719C71.2637 121.719 60.1797 127.09 51 137.832C42.1133 148.379 37.6699 160.635 37.6699 174.6V182.656ZM220.922 66.4941C214.281 66.4941 208.617 64.1992 203.93 59.6094C199.242 55.1172 196.898 49.4531 196.898 42.6172C196.898 35.9766 199.242 30.3125 203.93 25.625C208.422 21.1328 214.086 18.8867 220.922 18.8867C231.371 18.8867 238.695 23.6719 242.895 33.2422C244.164 36.0742 244.799 39.1992 244.799 42.6172C244.799 49.4531 242.455 55.1172 237.768 59.6094C233.08 64.1992 227.465 66.4941 220.922 66.4941ZM238.061 219.717C238.061 226.65 240.355 230.117 244.945 230.117C246.508 230.117 248.266 229.678 250.219 228.799C254.027 227.139 256.615 226.309 257.982 226.309C260.033 226.309 261.693 227.725 262.963 230.557L267.504 240.811C268.285 242.471 268.676 244.033 268.676 245.498C268.676 249.697 265.062 253.604 257.836 257.217C251 260.732 244.213 262.49 237.475 262.49C230.834 262.49 225.512 261.758 221.508 260.293C217.504 258.828 214.086 256.387 211.254 252.969C205.59 245.938 202.758 234.512 202.758 218.691V104.434C202.758 101.699 203.539 99.4043 205.102 97.5488C206.664 95.6934 208.52 94.7656 210.668 94.7656H230.297C232.543 94.7656 234.398 95.6934 235.863 97.5488C237.328 99.4043 238.061 101.699 238.061 104.434V219.717ZM349.096 233.633C367.846 233.633 377.221 227.334 377.221 214.736C377.221 207.803 371.898 201.943 361.254 197.158C356.762 195.107 351.83 193.203 346.459 191.445C341.186 189.688 336.107 187.588 331.225 185.146C326.342 182.705 321.752 180.068 317.455 177.236C313.256 174.307 309.594 170.986 306.469 167.275C300.023 159.463 296.801 149.551 296.801 137.539C296.801 122.891 302.904 111.27 315.111 102.676C325.951 94.9609 339.281 91.1035 355.102 91.1035C372.094 91.1035 386.303 94.4238 397.729 101.064C401.635 103.408 403.588 106.094 403.588 109.121C403.588 113.418 402.416 118.154 400.072 123.33C397.826 128.408 395.141 130.947 392.016 130.947C388.988 130.947 386.205 130.312 383.666 129.043C381.225 127.773 378.979 126.699 376.928 125.82C374.975 124.844 372.875 124.062 370.629 123.477C365.746 122.012 361.205 121.279 357.006 121.279C352.904 121.279 349.584 121.572 347.045 122.158C344.506 122.744 342.211 123.672 340.16 124.941C335.18 127.969 332.689 131.68 332.689 136.074C332.689 140.469 333.666 143.838 335.619 146.182C337.67 148.525 340.453 150.674 343.969 152.627C347.484 154.58 351.684 156.533 356.566 158.486L372.387 165.078C385.18 170.645 393.822 175.674 398.314 180.166C407.104 189.15 411.498 199.551 411.498 211.367C411.498 226.211 406.42 238.418 396.264 247.988C385.033 258.438 369.066 263.662 348.363 263.662C327.367 263.662 311.596 259.609 301.049 251.504C295.873 247.598 293.285 244.082 293.285 240.957C293.285 237.832 293.822 235.049 294.896 232.607C296.068 230.068 297.533 227.139 299.291 223.818C301.146 220.4 303.588 218.691 306.615 218.691C309.74 218.691 313.012 220.107 316.43 222.939C319.945 225.674 324.73 228.164 330.785 230.41C336.84 232.559 342.943 233.633 349.096 233.633ZM586.107 252.236C586.107 257.412 583.568 260 578.49 260H564.281C560.473 260 558.178 259.268 557.396 257.803C556.615 256.24 556.176 254.873 556.078 253.701C555.98 252.432 555.785 250.918 555.492 249.16C554.906 244.375 554.076 239.199 553.002 233.633C545.385 247.598 533.422 256.826 517.113 261.318C511.352 262.881 505.004 263.662 498.07 263.662C491.137 263.662 484.203 262.49 477.27 260.146C470.336 257.9 464.184 254.531 458.812 250.039C446.703 239.883 440.648 226.553 440.648 210.049C440.648 191.982 447.289 178.164 460.57 168.594C471.508 160.879 485.57 157.021 502.758 157.021C519.945 157.021 534.496 162.051 546.41 172.109C546.703 168.789 546.85 164.639 546.85 159.658C546.85 154.678 545.873 149.697 543.92 144.717C541.967 139.736 539.184 135.586 535.57 132.266C528.148 125.723 517.797 122.451 504.516 122.451C492.602 122.451 480.492 125.723 468.188 132.266C465.844 133.535 463.793 134.17 462.035 134.17C459.398 134.17 456.859 131.582 454.418 126.406C451.781 121.133 450.463 117.324 450.463 114.98C450.463 110.684 453.686 106.533 460.131 102.529C472.436 94.9121 488.891 91.1035 509.496 91.1035C528.246 91.1035 543.773 96.2305 556.078 106.484C570.629 118.789 577.904 136.172 577.904 158.633C577.904 168.594 576.293 181.143 573.07 196.279C581.371 219.912 585.717 238.564 586.107 252.236ZM487.963 190.127C483.959 193.057 481.078 195.986 479.32 198.916C477.66 201.846 476.83 205.312 476.83 209.316C476.83 213.223 477.514 216.738 478.881 219.863C480.346 222.891 482.348 225.43 484.887 227.48C490.258 231.68 496.264 233.779 502.904 233.779C509.643 233.779 515.16 232.998 519.457 231.436C523.754 229.873 527.465 227.871 530.59 225.43C537.328 220.156 540.697 214.59 540.697 208.73C540.111 201.406 536.059 195.645 528.539 191.445C521.801 187.539 513.842 185.586 504.662 185.586C497.533 185.586 491.967 187.1 487.963 190.127ZM614.086 237.881C614.086 230.947 616.527 224.941 621.41 219.863C626.293 214.883 632.25 212.393 639.281 212.393C646.215 212.393 652.074 214.883 656.859 219.863C661.742 224.941 664.184 230.947 664.184 237.881C664.184 244.912 661.742 250.967 656.859 256.045C651.977 261.123 646.117 263.662 639.281 263.662C632.348 263.662 626.391 261.123 621.41 256.045C616.527 250.967 614.086 244.912 614.086 237.881ZM813.158 115.42V9.51172C813.158 6.97266 813.891 4.82422 815.355 3.06641C816.918 1.21094 818.822 0.283203 821.068 0.283203H841.43C843.676 0.283203 845.531 1.21094 846.996 3.06641C848.461 4.82422 849.193 6.97266 849.193 9.51172V197.305C849.193 217.031 850.756 233.389 853.881 246.377C854.174 247.744 854.32 249.502 854.32 251.65C854.32 253.701 853.393 255.605 851.537 257.363C849.779 259.121 847.484 260 844.652 260H837.475C831.713 260 827.855 257.656 825.902 252.969C823.363 247.012 821.264 239.15 819.604 229.385C812.084 245.303 799.438 255.898 781.664 261.172C775.805 262.832 768.48 263.662 759.691 263.662C751 263.662 742.309 261.416 733.617 256.924C725.023 252.432 717.699 246.328 711.645 238.613C699.242 222.598 693.041 202.676 693.041 178.848C693.041 154.238 699.047 133.828 711.059 117.617C724.047 99.9414 741.381 91.1035 763.061 91.1035C784.74 91.1035 801.439 99.209 813.158 115.42ZM730.541 179.873C730.541 186.514 731.322 193.008 732.885 199.355C734.545 205.703 737.035 211.367 740.355 216.348C747.777 227.676 758.031 233.34 771.117 233.34C783.031 233.34 793.48 228.164 802.465 217.812C812.035 207.07 816.82 194.375 816.82 179.727C816.82 161.953 812.182 147.695 802.904 136.953C794.018 126.699 783.08 121.572 770.092 121.572C756.518 121.572 746.215 127.969 739.184 140.762C733.422 151.504 730.541 164.541 730.541 179.873ZM928.148 185.439L928.002 188.223C928.002 201.602 932.25 212.344 940.746 220.449C949.633 229.043 961.693 233.34 976.928 233.34C990.795 233.34 1003.69 229.189 1015.6 220.889C1017.85 219.326 1019.85 218.545 1021.61 218.545C1025.22 218.545 1027.95 220.352 1029.81 223.965L1033.76 232.168C1034.64 234.121 1035.08 236.221 1035.08 238.467C1035.08 240.713 1034.06 243.057 1032.01 245.498C1030.05 247.842 1027.46 249.99 1024.24 251.943C1021.02 253.896 1017.26 255.605 1012.96 257.07C1008.76 258.535 1004.42 259.756 999.926 260.732C990.941 262.686 981.566 263.662 971.801 263.662C962.035 263.662 952.172 261.807 942.211 258.096C932.348 254.385 923.803 248.965 916.576 241.836C901.049 226.699 893.285 206.24 893.285 180.459C893.285 135.244 909.203 107.119 941.039 96.084C951 92.666 961.205 90.957 971.654 90.957C982.201 90.957 991.137 92.0801 998.461 94.3262C1005.88 96.5723 1012.28 99.8926 1017.65 104.287C1028.98 113.564 1034.64 126.504 1034.64 143.105C1034.64 159.414 1028 171.865 1014.72 180.459C1003.1 187.979 987.768 191.738 968.725 191.738C957.006 191.738 943.48 189.639 928.148 185.439ZM1000.22 142.666C1000.22 128.701 990.844 121.719 972.094 121.719C954.223 121.719 941.723 128.262 934.594 141.348C932.055 145.938 930.395 151.602 929.613 158.34C938.012 162.539 948.705 164.639 961.693 164.639C987.377 164.639 1000.22 157.314 1000.22 142.666ZM1213.79 104.727C1212.62 121.328 1208.23 142.812 1200.61 169.18C1189.87 206.777 1177.86 233.584 1164.57 249.6C1159.98 254.971 1155.35 258.34 1150.66 259.707C1145.97 261.074 1141.23 261.758 1136.45 261.758C1131.66 261.758 1127.51 261.221 1124 260.146C1120.48 259.072 1117.55 257.412 1115.21 255.166C1111.3 251.357 1107.79 244.229 1104.66 233.779C1098.22 212.295 1091.53 191.299 1084.59 170.791L1063.35 109.561C1062.57 107.217 1062.18 105.215 1062.18 103.555C1062.18 97.6953 1065.99 94.7656 1073.61 94.7656H1086.94C1090.36 94.7656 1093.09 95.5469 1095.14 97.1094C1097.29 98.5742 1099.1 101.455 1100.56 105.752C1113.26 143.447 1124.05 181.582 1132.93 220.156C1134.01 225.137 1136.16 227.627 1139.38 227.627C1141.92 227.627 1144.26 225.576 1146.41 221.475C1156.96 201.846 1165.45 172.5 1171.9 133.438C1173.66 123.184 1174.93 115.322 1175.71 109.854C1176.59 104.385 1177.42 101.016 1178.2 99.7461C1179.08 98.4766 1180.05 97.5 1181.13 96.8164C1183.08 95.4492 1185.23 94.7656 1187.57 94.7656H1204.42C1210.67 94.7656 1213.79 98.0859 1213.79 104.727Z" fill="url(#paint0_linear_1_20)"/>
<defs>
<linearGradient id="paint0_linear_1_20" x1="601.5" y1="-32" x2="601.5" y2="343" gradientUnits="userSpaceOnUse">
<stop stop-color="#FFC94B"/>
<stop offset="0.552083" stop-color="#F9A66C"/>
<stop offset="1" stop-color="#F17A7E"/>
</linearGradient>
</defs>
</svg>
