<svg width="615" height="666" viewBox="0 0 615 666" fill="none" xmlns="http://www.w3.org/2000/svg">
<path d="M296.25 196H275.84C275.254 196 274.993 195.674 275.059 195.023L299.863 57.6211C299.993 57.1003 300.319 56.8398 300.84 56.8398H321.641C322.292 56.8398 322.552 57.1003 322.422 57.6211L297.227 195.023C297.161 195.674 296.836 196 296.25 196ZM356.016 196H335.605C335.02 196 334.759 195.674 334.824 195.023L359.629 57.6211C359.759 57.1003 360.085 56.8398 360.605 56.8398H381.406C382.057 56.8398 382.318 57.1003 382.188 57.6211L356.992 195.023C356.927 195.674 356.602 196 356.016 196ZM415.781 196H395.371C394.785 196 394.525 195.674 394.59 195.023L419.395 57.6211C419.525 57.1003 419.85 56.8398 420.371 56.8398H441.172C441.823 56.8398 442.083 57.1003 441.953 57.6211L416.758 195.023C416.693 195.674 416.367 196 415.781 196ZM244.297 396H223.887C223.301 396 223.04 395.674 223.105 395.023L247.91 257.621C248.04 257.1 248.366 256.84 248.887 256.84H269.688C270.339 256.84 270.599 257.1 270.469 257.621L245.273 395.023C245.208 395.674 244.883 396 244.297 396ZM304.062 396H283.652C283.066 396 282.806 395.674 282.871 395.023L307.676 257.621C307.806 257.1 308.132 256.84 308.652 256.84H329.453C330.104 256.84 330.365 257.1 330.234 257.621L305.039 395.023C304.974 395.674 304.648 396 304.062 396ZM363.828 396H343.418C342.832 396 342.572 395.674 342.637 395.023L367.441 257.621C367.572 257.1 367.897 256.84 368.418 256.84H389.219C389.87 256.84 390.13 257.1 390 257.621L364.805 395.023C364.74 395.674 364.414 396 363.828 396ZM192.344 596H171.934C171.348 596 171.087 595.674 171.152 595.023L195.957 457.621C196.087 457.1 196.413 456.84 196.934 456.84H217.734C218.385 456.84 218.646 457.1 218.516 457.621L193.32 595.023C193.255 595.674 192.93 596 192.344 596ZM252.109 596H231.699C231.113 596 230.853 595.674 230.918 595.023L255.723 457.621C255.853 457.1 256.178 456.84 256.699 456.84H277.5C278.151 456.84 278.411 457.1 278.281 457.621L253.086 595.023C253.021 595.674 252.695 596 252.109 596ZM311.875 596H291.465C290.879 596 290.618 595.674 290.684 595.023L315.488 457.621C315.618 457.1 315.944 456.84 316.465 456.84H337.266C337.917 456.84 338.177 457.1 338.047 457.621L312.852 595.023C312.786 595.674 312.461 596 311.875 596Z" fill="url(#paint0_linear_23_18)"/>
<path d="M92.1387 391.965L8.93555 325.754C7.37305 324.191 6.5918 322.336 6.5918 320.188C6.5918 318.234 7.37305 316.672 8.93555 315.5L89.9414 251.047C90.5273 250.461 91.2598 250.559 92.1387 251.34L106.787 269.65C107.373 270.822 107.471 271.604 107.08 271.994L47.0215 320.627L109.131 371.018C109.814 371.604 109.814 372.385 109.131 373.361L94.1895 391.672C93.4082 392.453 92.7246 392.551 92.1387 391.965Z" fill="url(#paint1_linear_23_18)"/>
<path d="M599.061 325.754L516.004 391.965C515.418 392.551 514.734 392.453 513.953 391.672L498.865 373.361C498.279 372.385 498.279 371.604 498.865 371.018L560.975 320.627L500.916 271.994C500.525 271.604 500.672 270.822 501.355 269.65L516.004 251.34C516.785 250.559 517.469 250.461 518.055 251.047L599.061 315.5C600.721 316.672 601.551 318.234 601.551 320.188C601.551 322.238 600.721 324.094 599.061 325.754Z" fill="url(#paint2_linear_23_18)"/>
<defs>
<linearGradient id="paint0_linear_23_18" x1="326" y1="0" x2="326" y2="666" gradientUnits="userSpaceOnUse">
<stop stop-color="#FFC94B"/>
<stop offset="0.552083" stop-color="#F9A66C"/>
<stop offset="1" stop-color="#F17A7E"/>
</linearGradient>
<linearGradient id="paint1_linear_23_18" x1="64" y1="183" x2="64" y2="483" gradientUnits="userSpaceOnUse">
<stop stop-color="#FFC94B"/>
<stop offset="0.552083" stop-color="#F9A66C"/>
<stop offset="1" stop-color="#F17A7E"/>
</linearGradient>
<linearGradient id="paint2_linear_23_18" x1="551" y1="183" x2="551" y2="483" gradientUnits="userSpaceOnUse">
<stop stop-color="#FFC94B"/>
<stop offset="0.552083" stop-color="#F9A66C"/>
<stop offset="1" stop-color="#F17A7E"/>
</linearGradient>
</defs>
</svg>
