<?xml version="1.0" standalone="no"?>
<!DOCTYPE svg PUBLIC "-//W3C//DTD SVG 20010904//EN"
 "http://www.w3.org/TR/2001/REC-SVG-20010904/DTD/svg10.dtd">
<svg version="1.0" xmlns="http://www.w3.org/2000/svg"
 width="800.000000pt" height="800.000000pt" viewBox="0 0 800.000000 800.000000"
 preserveAspectRatio="xMidYMid meet">
<metadata>
Created by potrace 1.14, written by Peter Selinger 2001-2017
</metadata>
<g transform="translate(0.000000,800.000000) scale(0.100000,-0.100000)"
fill="#000000" stroke="none">
<path d="M4281 6417 c-63 -127 -127 -259 -143 -292 -16 -33 -33 -67 -38 -75
-5 -8 -81 -161 -169 -340 -87 -179 -206 -421 -265 -539 -58 -117 -106 -214
-106 -216 0 -6 397 -3 407 3 12 8 213 414 213 431 0 6 5 11 10 11 6 0 10 4 10
9 0 8 271 570 300 624 6 9 14 25 20 35 16 28 280 573 280 578 0 2 -91 4 -202
4 l-203 0 -114 -233z"/>
<path d="M5450 6641 c0 -5 -115 -243 -256 -528 -141 -285 -325 -658 -410 -830
-85 -171 -154 -316 -154 -322 0 -6 71 -9 202 -8 l201 2 57 113 c31 61 55 112
53 112 -3 0 5 13 16 29 12 16 21 32 21 35 0 4 41 91 91 194 51 103 91 189 90
191 -2 2 1 7 6 10 4 3 24 40 43 81 19 41 38 77 43 78 4 2 7 8 7 14 0 5 41 92
90 192 50 100 90 187 90 193 0 6 3 13 8 15 4 2 15 19 24 38 9 19 53 109 97
199 44 90 83 172 86 182 6 18 -3 19 -199 19 -119 0 -206 -4 -206 -9z"/>
<path d="M3697 4644 c-6 -6 -140 -275 -174 -349 -7 -16 -18 -37 -23 -45 -5 -8
-105 -208 -221 -445 -116 -236 -258 -523 -314 -638 -56 -114 -99 -209 -96
-211 3 -2 95 -4 204 -4 l199 0 35 71 c19 40 38 79 43 87 5 8 17 33 27 55 9 22
22 43 27 47 6 4 8 8 4 8 -3 0 20 54 53 119 32 66 59 124 59 130 0 6 5 11 10
11 6 0 10 4 10 9 0 9 249 526 270 561 5 8 17 31 26 50 10 19 73 149 141 287
68 139 123 255 123 258 0 7 -395 6 -403 -1z"/>
<path d="M4717 4563 c-24 -49 -50 -99 -57 -113 -8 -14 -15 -27 -15 -30 0 -3
-62 -129 -137 -280 -74 -151 -222 -450 -327 -665 -106 -214 -196 -397 -201
-405 -16 -25 -50 -102 -50 -111 0 -5 90 -8 202 -7 l202 3 77 153 c42 83 75
152 73 152 -3 0 8 19 23 43 14 23 26 43 24 45 -1 1 59 126 134 277 74 151 135
279 135 285 0 5 5 10 10 10 6 0 10 5 10 11 0 10 78 172 271 562 l78 157 -205
0 -205 0 -42 -87z"/>
<path d="M2075 4477 c-11 -8 -47 -29 -80 -46 -60 -33 -178 -101 -225 -129 -14
-9 -27 -15 -30 -15 -3 0 -16 -7 -30 -17 -14 -9 -72 -44 -130 -77 -88 -50 -317
-182 -485 -278 -22 -13 -62 -35 -89 -50 -108 -57 -101 -43 -101 -217 l-1 -153
26 -16 c14 -9 46 -28 72 -42 158 -88 283 -162 286 -169 2 -4 11 -8 21 -8 9 0
21 -4 27 -9 10 -10 234 -141 240 -141 3 0 40 -22 84 -50 44 -27 80 -46 80 -43
0 3 7 0 15 -7 21 -17 76 -49 98 -56 9 -4 17 -11 17 -17 0 -6 3 -7 7 -4 3 4 13
1 22 -7 9 -8 39 -26 66 -41 28 -14 70 -38 93 -51 24 -14 45 -24 47 -22 5 4
215 438 215 443 0 2 -173 91 -385 197 -212 106 -385 195 -385 198 0 3 109 59
243 125 133 66 244 122 247 125 3 3 67 36 143 73 76 38 137 72 135 77 -12 34
-213 440 -218 440 -3 0 -14 -6 -25 -13z"/>
<path d="M5933 4475 c-7 -8 -13 -19 -13 -25 0 -6 -11 -31 -25 -56 -13 -24 -21
-44 -17 -44 4 0 2 -4 -3 -8 -14 -10 -135 -260 -138 -284 -2 -17 61 -51 380
-211 211 -106 383 -194 383 -197 0 -3 -117 -63 -261 -135 -143 -71 -263 -133
-265 -137 -2 -3 -17 -9 -33 -13 -16 -3 -35 -13 -42 -21 -6 -8 -19 -14 -29 -14
-10 0 -23 -7 -30 -15 -6 -8 -15 -14 -18 -13 -12 3 -92 -42 -92 -51 0 -5 22
-54 49 -108 26 -54 76 -154 109 -223 34 -69 62 -120 62 -115 0 6 30 26 68 44
37 19 69 37 72 41 3 4 34 22 70 42 36 19 173 97 305 173 132 76 249 143 260
149 74 41 301 171 305 176 3 3 19 12 35 20 84 40 80 32 79 186 -1 77 -2 146
-3 156 -1 15 -130 98 -152 98 -5 0 -9 5 -9 10 0 6 -4 10 -9 10 -5 0 -64 32
-131 70 -67 39 -126 70 -131 70 -5 0 -9 5 -9 10 0 6 -4 10 -9 10 -9 0 -83 41
-401 225 -74 43 -150 86 -168 97 -18 10 -65 36 -103 58 -39 22 -72 40 -72 40
-1 -1 -8 -7 -14 -15z"/>
<path d="M2993 2638 c-18 -31 -143 -288 -143 -297 0 -5 -5 -11 -11 -13 -5 -2
-11 -10 -13 -18 -1 -8 -95 -202 -208 -430 -113 -228 -260 -527 -328 -665 -68
-137 -125 -253 -127 -256 -1 -4 90 -6 203 -5 l205 1 39 73 c22 40 39 75 40 77
0 6 188 390 401 820 79 160 143 292 144 295 0 3 47 97 103 210 56 114 102 209
102 213 0 4 -90 7 -199 7 -149 0 -202 -3 -208 -12z"/>
<path d="M3881 2288 c-98 -200 -231 -469 -295 -598 -64 -129 -116 -240 -116
-246 0 -7 -3 -14 -8 -16 -6 -2 -123 -231 -127 -248 -1 -3 -24 -51 -53 -107
-29 -57 -52 -107 -52 -113 0 -7 67 -10 203 -8 l202 3 67 135 c37 74 160 324
273 555 114 231 229 466 257 522 27 56 49 105 48 109 -1 4 2 10 7 13 10 7 113
216 113 229 0 4 5 13 11 19 6 6 21 34 34 62 l24 51 -205 0 -205 0 -178 -362z"/>
</g>
</svg>
