<?xml version="1.0" standalone="no"?>
<!DOCTYPE svg PUBLIC "-//W3C//DTD SVG 20010904//EN"
 "http://www.w3.org/TR/2001/REC-SVG-20010904/DTD/svg10.dtd">
<svg version="1.0" xmlns="http://www.w3.org/2000/svg"
 width="700.000000pt" height="700.000000pt" viewBox="0 0 700.000000 700.000000"
 preserveAspectRatio="xMidYMid meet">
<metadata>
Created by potrace 1.14, written by Peter Selinger 2001-2017
</metadata>
<g transform="translate(0.000000,700.000000) scale(0.100000,-0.100000)"
fill="#000000" stroke="none">
<path d="M3655 5494 c-83 -12 -236 -48 -299 -71 -264 -95 -508 -293 -658 -535
-16 -27 -31 -48 -33 -48 -2 0 -9 26 -15 58 -46 236 -107 397 -172 459 -55 53
-98 66 -241 71 -143 5 -204 -6 -256 -45 -71 -55 -85 -136 -52 -308 23 -118 46
-297 63 -485 8 -95 13 -740 17 -2185 6 -2198 3 -2066 55 -2123 45 -50 58 -52
329 -52 247 0 255 1 288 23 19 12 44 42 57 67 l23 45 -5 985 c-3 542 -9 1018
-13 1058 -5 39 -6 72 -3 72 3 0 16 -19 29 -43 91 -160 257 -324 422 -416 286
-160 727 -180 1059 -49 438 173 802 664 929 1250 43 200 55 324 55 573 0 255
-10 364 -50 558 -126 603 -494 1002 -1034 1122 -73 16 -421 29 -495 19z m199
-650 c339 -88 580 -468 603 -952 13 -285 -35 -600 -128 -837 -101 -260 -259
-427 -474 -501 -73 -25 -93 -28 -225 -28 -125 -1 -155 2 -220 22 -319 100
-601 410 -683 752 -37 150 -48 406 -27 595 31 270 143 501 338 698 148 151
320 240 513 267 81 11 227 4 303 -16z"/>
</g>
</svg>
