<svg width="936" height="56" viewBox="0 0 936 56" fill="none" xmlns="http://www.w3.org/2000/svg">
<path d="M6.03125 35.5547C6.03125 36.6641 6.42188 37.2188 7.20312 37.2188C7.45312 37.2188 7.77344 37.1484 8.16406 37.0078C8.88281 36.7422 9.32031 36.6094 9.47656 36.6094C9.83594 36.6094 10.1172 36.8359 10.3203 37.2891L11.0469 38.9531C11.1406 39.1875 11.1875 39.4062 11.1875 39.6094C11.1875 39.9688 10.8906 40.4062 10.2969 40.9219C9.10938 41.9062 7.55469 42.3984 5.63281 42.3984C2.13281 42.3984 0.382812 40.0625 0.382812 35.3906V1.96875C0.382812 1.54688 0.507812 1.1875 0.757812 0.890625C1.00781 0.59375 1.30469 0.445312 1.64844 0.445312H4.78906C5.14844 0.445312 5.44531 0.59375 5.67969 0.890625C5.91406 1.1875 6.03125 1.54688 6.03125 1.96875V35.5547ZM37.6016 40.7578C37.6016 41.5859 37.1953 42 36.3828 42H34.1094C33.5 42 33.1328 41.8828 33.0078 41.6484C32.8828 41.3984 32.8125 41.1797 32.7969 40.9922C32.7812 40.7891 32.75 40.5469 32.7031 40.2656C32.6094 39.5 32.4766 38.6719 32.3047 37.7812C31.0859 40.0156 29.1719 41.4922 26.5625 42.2109C25.6406 42.4609 24.625 42.5859 23.5156 42.5859C22.4062 42.5859 21.2969 42.3984 20.1875 42.0234C19.0781 41.6641 18.0938 41.125 17.2344 40.4062C15.2969 38.7812 14.3281 36.6484 14.3281 34.0078C14.3281 31.1172 15.3906 28.9062 17.5156 27.375C19.2656 26.1406 21.5156 25.5234 24.2656 25.5234C27.0156 25.5234 29.3438 26.3281 31.25 27.9375C31.2969 27.4062 31.3203 26.7422 31.3203 25.9453C31.3203 25.1484 31.1641 24.3516 30.8516 23.5547C30.5391 22.7578 30.0938 22.0938 29.5156 21.5625C28.3281 20.5156 26.6719 19.9922 24.5469 19.9922C22.6406 19.9922 20.7031 20.5156 18.7344 21.5625C18.3594 21.7656 18.0312 21.8672 17.75 21.8672C17.3281 21.8672 16.9219 21.4531 16.5312 20.625C16.1094 19.7812 15.8984 19.1719 15.8984 18.7969C15.8984 18.1094 16.4141 17.4453 17.4453 16.8047C19.4141 15.5859 22.0469 14.9766 25.3438 14.9766C28.3438 14.9766 30.8281 15.7969 32.7969 17.4375C35.125 19.4062 36.2891 22.1875 36.2891 25.7812C36.2891 27.375 36.0312 29.3828 35.5156 31.8047C36.8438 35.5859 37.5391 38.5703 37.6016 40.7578ZM21.8984 30.8203C21.2578 31.2891 20.7969 31.7578 20.5156 32.2266C20.25 32.6953 20.1172 33.25 20.1172 33.8906C20.1172 34.5156 20.2266 35.0781 20.4453 35.5781C20.6797 36.0625 21 36.4688 21.4062 36.7969C22.2656 37.4688 23.2266 37.8047 24.2891 37.8047C25.3672 37.8047 26.25 37.6797 26.9375 37.4297C27.625 37.1797 28.2188 36.8594 28.7188 36.4688C29.7969 35.625 30.3359 34.7344 30.3359 33.7969C30.2422 32.625 29.5938 31.7031 28.3906 31.0312C27.3125 30.4062 26.0391 30.0938 24.5703 30.0938C23.4297 30.0938 22.5391 30.3359 21.8984 30.8203ZM74.0234 25.9922C72.7422 25.9922 72.1016 25.3594 72.1016 24.0938C72.1016 22.6406 71.6562 21.5312 70.7656 20.7656C70 20.0938 68.9688 19.7578 67.6719 19.7578C66.3906 19.7578 65.3281 20.0234 64.4844 20.5547C63.6406 21.0859 62.9531 21.7656 62.4219 22.5938C61.3906 24.2188 60.875 26.1719 60.875 28.4531C60.875 32.7188 62.1719 35.5156 64.7656 36.8438C65.7031 37.3281 66.7422 37.5703 67.8828 37.5703C69.0234 37.5703 69.9609 37.4453 70.6953 37.1953C71.4297 36.9453 72.0859 36.6719 72.6641 36.375C73.2422 36.0781 73.7422 35.8047 74.1641 35.5547C74.6016 35.3047 74.9609 35.1797 75.2422 35.1797C75.8047 35.1797 76.25 35.4375 76.5781 35.9531L77.0938 36.8203C77.3281 37.2266 77.4453 37.625 77.4453 38.0156C77.4453 38.3906 77.2891 38.7891 76.9766 39.2109C76.6641 39.6172 76.2422 39.9922 75.7109 40.3359C75.1953 40.6797 74.6016 40.9922 73.9297 41.2734C73.2578 41.5547 72.5625 41.7969 71.8438 42C68.4062 42.9219 65.2656 42.7812 62.4219 41.5781C59.2344 40.2344 57.0391 37.8281 55.8359 34.3594C55.2422 32.6406 54.9453 30.7188 54.9453 28.5938C54.9453 26.4688 55.2578 24.5625 55.8828 22.875C56.5234 21.1875 57.4062 19.7578 58.5312 18.5859C60.8594 16.1797 63.8984 14.9766 67.6484 14.9766C70.9609 14.9766 73.5 15.8438 75.2656 17.5781C76.75 19.0625 77.4922 20.9219 77.4922 23.1562C77.4922 25.0469 76.5234 25.9922 74.5859 25.9922H74.0234ZM82.9062 28.6875C82.9062 26.6562 83.2422 24.7969 83.9141 23.1094C84.6016 21.4062 85.5391 19.9531 86.7266 18.75C89.2109 16.2344 92.3438 14.9766 96.125 14.9766C100.359 14.9766 103.641 16.2344 105.969 18.75C108.219 21.1719 109.344 24.5 109.344 28.7344C109.344 32.8281 108.07 36.1719 105.523 38.7656C103.039 41.3125 99.9062 42.5859 96.125 42.5859C92.1406 42.5859 88.9375 41.2812 86.5156 38.6719C84.1094 36.125 82.9062 32.7969 82.9062 28.6875ZM90.4297 22.7344C89.8516 23.5938 89.4297 24.5781 89.1641 25.6875C88.8984 26.7812 88.7656 27.8984 88.7656 29.0391C88.7656 30.1641 88.9141 31.25 89.2109 32.2969C89.5234 33.3281 89.9844 34.25 90.5938 35.0625C91.9375 36.8438 93.8125 37.7344 96.2188 37.7344C98.6719 37.7344 100.531 36.8594 101.797 35.1094C102.922 33.5781 103.484 31.4922 103.484 28.8516C103.484 24.8984 102.188 22.1719 99.5938 20.6719C98.6406 20.125 97.4844 19.8516 96.125 19.8516C94.7812 19.8516 93.6406 20.1172 92.7031 20.6484C91.7812 21.1641 91.0234 21.8594 90.4297 22.7344ZM130.859 14.9766C134.797 14.9766 137.289 16.7344 138.336 20.25C139.898 17.7344 141.969 16.0938 144.547 15.3281C145.422 15.0781 146.523 14.9531 147.852 14.9531C149.18 14.9531 150.461 15.2812 151.695 15.9375C152.945 16.5938 153.867 17.4531 154.461 18.5156C155.07 19.5625 155.453 20.7188 155.609 21.9844C155.781 23.25 155.867 24.6094 155.867 26.0625V40.4531C155.867 40.8906 155.727 41.2578 155.445 41.5547C155.164 41.8516 154.75 42 154.203 42H151.906C151.312 42 150.875 41.8516 150.594 41.5547C150.312 41.2578 150.172 40.8906 150.172 40.4531V25.8516C150.172 23.8359 149.82 22.3359 149.117 21.3516C148.43 20.3672 147.336 19.875 145.836 19.875C144.133 19.875 142.641 20.625 141.359 22.125C139.984 23.6875 139.297 25.625 139.297 27.9375V40.4531C139.297 40.8906 139.156 41.2578 138.875 41.5547C138.594 41.8516 138.18 42 137.633 42H135.336C134.742 42 134.305 41.8516 134.023 41.5547C133.742 41.2578 133.602 40.8906 133.602 40.4531V25.8516C133.602 23.8359 133.25 22.3359 132.547 21.3516C131.859 20.3672 130.766 19.875 129.266 19.875C127.562 19.875 126.062 20.625 124.766 22.125C123.406 23.6875 122.727 25.625 122.727 27.9375V40.4531C122.727 40.8906 122.594 41.2578 122.328 41.5547C122.062 41.8516 121.656 42 121.109 42H118.695C118.148 42 117.734 41.8516 117.453 41.5547C117.172 41.2578 117.031 40.8906 117.031 40.4531V26.0625C117.031 22.9219 116.93 20.7344 116.727 19.5C116.523 18.25 116.422 17.5 116.422 17.25C116.422 16.125 116.961 15.5625 118.039 15.5625H119.328C120.203 15.5625 120.797 15.8906 121.109 16.5469C121.484 17.3438 121.844 18.5781 122.188 20.25C123.547 17.7969 125.516 16.1719 128.094 15.375C128.969 15.1094 129.891 14.9766 130.859 14.9766ZM178.766 14.9766C182.703 14.9766 185.195 16.7344 186.242 20.25C187.805 17.7344 189.875 16.0938 192.453 15.3281C193.328 15.0781 194.43 14.9531 195.758 14.9531C197.086 14.9531 198.367 15.2812 199.602 15.9375C200.852 16.5938 201.773 17.4531 202.367 18.5156C202.977 19.5625 203.359 20.7188 203.516 21.9844C203.688 23.25 203.773 24.6094 203.773 26.0625V40.4531C203.773 40.8906 203.633 41.2578 203.352 41.5547C203.07 41.8516 202.656 42 202.109 42H199.812C199.219 42 198.781 41.8516 198.5 41.5547C198.219 41.2578 198.078 40.8906 198.078 40.4531V25.8516C198.078 23.8359 197.727 22.3359 197.023 21.3516C196.336 20.3672 195.242 19.875 193.742 19.875C192.039 19.875 190.547 20.625 189.266 22.125C187.891 23.6875 187.203 25.625 187.203 27.9375V40.4531C187.203 40.8906 187.062 41.2578 186.781 41.5547C186.5 41.8516 186.086 42 185.539 42H183.242C182.648 42 182.211 41.8516 181.93 41.5547C181.648 41.2578 181.508 40.8906 181.508 40.4531V25.8516C181.508 23.8359 181.156 22.3359 180.453 21.3516C179.766 20.3672 178.672 19.875 177.172 19.875C175.469 19.875 173.969 20.625 172.672 22.125C171.312 23.6875 170.633 25.625 170.633 27.9375V40.4531C170.633 40.8906 170.5 41.2578 170.234 41.5547C169.969 41.8516 169.562 42 169.016 42H166.602C166.055 42 165.641 41.8516 165.359 41.5547C165.078 41.2578 164.938 40.8906 164.938 40.4531V26.0625C164.938 22.9219 164.836 20.7344 164.633 19.5C164.43 18.25 164.328 17.5 164.328 17.25C164.328 16.125 164.867 15.5625 165.945 15.5625H167.234C168.109 15.5625 168.703 15.8906 169.016 16.5469C169.391 17.3438 169.75 18.5781 170.094 20.25C171.453 17.7969 173.422 16.1719 176 15.375C176.875 15.1094 177.797 14.9766 178.766 14.9766ZM235.93 40.4062C235.93 41.4688 235.445 42 234.477 42H233.422C232.484 42 231.867 41.625 231.57 40.875C231.242 40.0156 230.891 38.8203 230.516 37.2891C229.859 38.9297 228.742 40.2266 227.164 41.1797C225.602 42.1172 223.648 42.5859 221.305 42.5859C218.242 42.5859 215.984 41.6328 214.531 39.7266C213.078 37.8047 212.352 34.9766 212.352 31.2422V17.1094C212.352 16.6719 212.484 16.3047 212.75 16.0078C213.031 15.7109 213.422 15.5625 213.922 15.5625H216.5C217.531 15.5625 218.047 16.0781 218.047 17.1094V30.9844C218.047 34.7188 218.914 36.875 220.648 37.4531C221.211 37.6406 221.875 37.7344 222.641 37.7344C223.422 37.7344 224.219 37.5547 225.031 37.1953C225.859 36.8359 226.602 36.3594 227.258 35.7656C228.727 34.4062 229.461 32.8516 229.461 31.1016V17.1094C229.461 16.6719 229.594 16.3047 229.859 16.0078C230.125 15.7109 230.547 15.5625 231.125 15.5625H233.586C234.133 15.5625 234.531 15.7109 234.781 16.0078C235.031 16.3047 235.156 16.6719 235.156 17.1094V31.7578C235.156 35.0547 235.391 37.7109 235.859 39.7266C235.906 39.8984 235.93 40.125 235.93 40.4062ZM244.203 17.25C244.203 16.125 244.742 15.5625 245.82 15.5625H247.109C247.984 15.5625 248.578 15.8906 248.891 16.5469C249.328 17.4844 249.703 18.7188 250.016 20.25C251.422 17.6875 253.516 16.0469 256.297 15.3281C257.172 15.0938 258.258 14.9766 259.555 14.9766C260.867 14.9766 262.078 15.2578 263.188 15.8203C264.297 16.3672 265.172 17.125 265.812 18.0938C267 19.8594 267.594 22.4609 267.594 25.8984V40.4531C267.594 40.8906 267.453 41.2578 267.172 41.5547C266.891 41.8516 266.477 42 265.93 42H263.633C263.039 42 262.602 41.8516 262.32 41.5547C262.039 41.2578 261.898 40.8906 261.898 40.4531V25.875C261.898 21.875 260.43 19.875 257.492 19.875C255.773 19.875 254.203 20.5938 252.781 22.0312C251.266 23.5781 250.508 25.375 250.508 27.4219V40.4531C250.508 40.8906 250.375 41.2578 250.109 41.5547C249.844 41.8516 249.438 42 248.891 42H246.477C245.93 42 245.516 41.8516 245.234 41.5547C244.953 41.2578 244.812 40.8906 244.812 40.4531V26.0625C244.812 22.9219 244.711 20.7344 244.508 19.5C244.305 18.25 244.203 17.5 244.203 17.25ZM279.031 11.0391C277.969 11.0391 277.062 10.6719 276.312 9.9375C275.562 9.21875 275.188 8.3125 275.188 7.21875C275.188 6.15625 275.562 5.25 276.312 4.5C277.031 3.78125 277.938 3.42188 279.031 3.42188C280.703 3.42188 281.875 4.1875 282.547 5.71875C282.75 6.17187 282.852 6.67188 282.852 7.21875C282.852 8.3125 282.477 9.21875 281.727 9.9375C280.977 10.6719 280.078 11.0391 279.031 11.0391ZM281.773 35.5547C281.773 36.6641 282.141 37.2188 282.875 37.2188C283.125 37.2188 283.406 37.1484 283.719 37.0078C284.328 36.7422 284.742 36.6094 284.961 36.6094C285.289 36.6094 285.555 36.8359 285.758 37.2891L286.484 38.9297C286.609 39.1953 286.672 39.4453 286.672 39.6797C286.672 40.3516 286.094 40.9766 284.938 41.5547C283.844 42.1172 282.758 42.3984 281.68 42.3984C280.617 42.3984 279.766 42.2812 279.125 42.0469C278.484 41.8125 277.938 41.4219 277.484 40.875C276.578 39.75 276.125 37.9219 276.125 35.3906V17.1094C276.125 16.6719 276.25 16.3047 276.5 16.0078C276.75 15.7109 277.047 15.5625 277.391 15.5625H280.531C280.891 15.5625 281.188 15.7109 281.422 16.0078C281.656 16.3047 281.773 16.6719 281.773 17.1094V35.5547ZM306.523 19.125C306.523 20 306.031 20.4375 305.047 20.4375H298.438V35.1562C298.438 36.75 299.227 37.5469 300.805 37.5469C301.805 37.5469 303.109 37.0469 304.719 36.0469C305.031 35.8438 305.367 35.7422 305.727 35.7422C306.102 35.7422 306.398 36 306.617 36.5156L307.156 37.7344C307.359 38.2031 307.461 38.6016 307.461 38.9297C307.461 39.2578 307.211 39.6406 306.711 40.0781C306.227 40.5 305.602 40.8828 304.836 41.2266C303.102 42.0078 301.531 42.3984 300.125 42.3984C298.719 42.3984 297.602 42.2578 296.773 41.9766C295.961 41.6797 295.266 41.2422 294.688 40.6641C293.438 39.4453 292.812 37.6875 292.812 35.3906V20.4375H290.844C289.859 20.4375 289.367 19.9922 289.367 19.1016V17.7656C289.367 17.4062 289.461 17.125 289.648 16.9219C289.836 16.7188 290.203 16.5625 290.75 16.4531L293.094 15.7734L293.984 10.2656C294.156 9.23438 294.578 8.71875 295.25 8.71875H297.195C297.555 8.71875 297.852 8.86719 298.086 9.16406C298.32 9.44531 298.438 9.8125 298.438 10.2656V15.5625H305.047C306.031 15.5625 306.523 15.9922 306.523 16.8516V19.125ZM332.375 15.5625C333.375 15.5625 333.875 16.0547 333.875 17.0391C333.875 18.1797 333.281 20.7031 332.094 24.6094L330.641 29.0859C327.219 38.8984 322.977 46.9766 317.914 53.3203L317.445 53.9062C316.727 54.8281 315.992 55.2891 315.242 55.2891C314.445 55.2891 313.523 54.7344 312.477 53.625C312.18 53.3125 312.031 52.9531 312.031 52.5469C312.031 51.8906 312.383 51.1953 313.086 50.4609C313.789 49.7422 314.438 49.0156 315.031 48.2812C315.625 47.5625 316.188 46.8359 316.719 46.1016C317.688 44.7734 318.562 43.375 319.344 41.9062C316.906 35.3281 315.43 31.3906 314.914 30.0938L312.359 23.7422L310.555 19.6406C309.883 18.0781 309.547 17.1328 309.547 16.8047C309.547 16.4609 309.688 16.1719 309.969 15.9375C310.266 15.6875 310.68 15.5625 311.211 15.5625H314.164C314.852 15.5625 315.383 15.9531 315.758 16.7344C316.039 17.3125 316.422 18.2656 316.906 19.5938C317.891 22.4688 318.609 24.6016 319.062 25.9922L320.961 32.2031C321.148 32.8281 321.289 33.3281 321.383 33.7031L321.594 34.5469C321.641 34.7344 321.695 34.9688 321.758 35.25L321.969 36.1406C322.047 36.4531 322.133 36.6094 322.227 36.6094C322.32 36.6094 322.422 36.5156 322.531 36.3281C322.656 36.1406 322.781 35.8984 322.906 35.6016L323.305 34.6172C324.93 30.4453 326.469 24.6016 327.922 17.0859C328.109 16.0703 328.695 15.5625 329.68 15.5625H332.375ZM369.711 18.8672V1.92188C369.711 1.51563 369.828 1.17188 370.062 0.890625C370.312 0.59375 370.617 0.445312 370.977 0.445312H374.234C374.594 0.445312 374.891 0.59375 375.125 0.890625C375.359 1.17188 375.477 1.51563 375.477 1.92188V31.9688C375.477 35.125 375.727 37.7422 376.227 39.8203C376.273 40.0391 376.297 40.3203 376.297 40.6641C376.297 40.9922 376.148 41.2969 375.852 41.5781C375.57 41.8594 375.203 42 374.75 42H373.602C372.68 42 372.062 41.625 371.75 40.875C371.344 39.9219 371.008 38.6641 370.742 37.1016C369.539 39.6484 367.516 41.3438 364.672 42.1875C363.734 42.4531 362.562 42.5859 361.156 42.5859C359.766 42.5859 358.375 42.2266 356.984 41.5078C355.609 40.7891 354.438 39.8125 353.469 38.5781C351.484 36.0156 350.492 32.8281 350.492 29.0156C350.492 25.0781 351.453 21.8125 353.375 19.2188C355.453 16.3906 358.227 14.9766 361.695 14.9766C365.164 14.9766 367.836 16.2734 369.711 18.8672ZM356.492 29.1797C356.492 30.2422 356.617 31.2812 356.867 32.2969C357.133 33.3125 357.531 34.2188 358.062 35.0156C359.25 36.8281 360.891 37.7344 362.984 37.7344C364.891 37.7344 366.562 36.9062 368 35.25C369.531 33.5312 370.297 31.5 370.297 29.1562C370.297 26.3125 369.555 24.0312 368.07 22.3125C366.648 20.6719 364.898 19.8516 362.82 19.8516C360.648 19.8516 359 20.875 357.875 22.9219C356.953 24.6406 356.492 26.7266 356.492 29.1797ZM388.109 30.0703L388.086 30.5156C388.086 32.6562 388.766 34.375 390.125 35.6719C391.547 37.0469 393.477 37.7344 395.914 37.7344C398.133 37.7344 400.195 37.0703 402.102 35.7422C402.461 35.4922 402.781 35.3672 403.062 35.3672C403.641 35.3672 404.078 35.6562 404.375 36.2344L405.008 37.5469C405.148 37.8594 405.219 38.1953 405.219 38.5547C405.219 38.9141 405.055 39.2891 404.727 39.6797C404.414 40.0547 404 40.3984 403.484 40.7109C402.969 41.0234 402.367 41.2969 401.68 41.5312C401.008 41.7656 400.312 41.9609 399.594 42.1172C398.156 42.4297 396.656 42.5859 395.094 42.5859C393.531 42.5859 391.953 42.2891 390.359 41.6953C388.781 41.1016 387.414 40.2344 386.258 39.0938C383.773 36.6719 382.531 33.3984 382.531 29.2734C382.531 22.0391 385.078 17.5391 390.172 15.7734C391.766 15.2266 393.398 14.9531 395.07 14.9531C396.758 14.9531 398.188 15.1328 399.359 15.4922C400.547 15.8516 401.57 16.3828 402.43 17.0859C404.242 18.5703 405.148 20.6406 405.148 23.2969C405.148 25.9062 404.086 27.8984 401.961 29.2734C400.102 30.4766 397.648 31.0781 394.602 31.0781C392.727 31.0781 390.562 30.7422 388.109 30.0703ZM399.641 23.2266C399.641 20.9922 398.141 19.875 395.141 19.875C392.281 19.875 390.281 20.9219 389.141 23.0156C388.734 23.75 388.469 24.6562 388.344 25.7344C389.688 26.4062 391.398 26.7422 393.477 26.7422C397.586 26.7422 399.641 25.5703 399.641 23.2266ZM418.648 39.4922C420.117 38.7734 421.672 38.4141 423.312 38.4141C424.969 38.4141 426.438 38.5703 427.719 38.8828C429.016 39.1797 430.18 39.6562 431.211 40.3125C433.523 41.7812 434.68 43.8359 434.68 46.4766C434.68 49.2266 433.367 51.4375 430.742 53.1094C428.414 54.5781 425.617 55.3125 422.352 55.3125C419.023 55.3125 416.25 54.5938 414.031 53.1562C411.641 51.5938 410.445 49.4688 410.445 46.7812C410.445 43.5156 412.172 40.3594 415.625 37.3125C416.969 36.1406 418.453 35.0859 420.078 34.1484C417.531 33.9141 415.359 33.0156 413.562 31.4531C411.547 29.6875 410.539 27.4922 410.539 24.8672C410.539 21.8516 411.672 19.4062 413.938 17.5312C416.016 15.8281 418.492 14.9766 421.367 14.9766C424.461 14.9766 426.891 15.8125 428.656 17.4844C429.203 18 429.641 18.5859 429.969 19.2422C429.969 17.8047 429.781 16.3203 429.406 14.7891C429.047 13.2422 428.867 12.3203 428.867 12.0234C428.867 11.7266 428.922 11.4922 429.031 11.3203C429.156 11.1328 429.297 10.9922 429.453 10.8984C429.688 10.7578 429.953 10.6875 430.25 10.6875H432.266C433.562 10.6875 434.211 12.4922 434.211 16.1016C434.211 18.9922 433.633 21.6562 432.477 24.0938C432.508 24.4375 432.523 24.8906 432.523 25.4531C432.523 26.0156 432.398 26.6719 432.148 27.4219C431.898 28.1719 431.562 28.875 431.141 29.5312C430.734 30.1719 430.258 30.7656 429.711 31.3125C429.18 31.8594 428.609 32.3672 428 32.8359C427.406 33.3047 426.805 33.7344 426.195 34.125C422.773 36.2969 420.727 37.6562 420.055 38.2031C419.383 38.7344 418.914 39.1641 418.648 39.4922ZM417.57 28.6172C418.102 29.0703 418.719 29.4219 419.422 29.6719C420.141 29.9062 420.898 30.0234 421.695 30.0234C422.508 30.0234 423.25 29.9062 423.922 29.6719C424.594 29.4219 425.188 29.0625 425.703 28.5938C426.797 27.6094 427.344 26.3438 427.344 24.7969C427.344 23.2188 426.734 21.9766 425.516 21.0703C424.438 20.2734 423.109 19.875 421.531 19.875C419.031 19.875 417.305 20.8047 416.352 22.6641C416.039 23.2734 415.883 23.9844 415.883 24.7969C415.883 25.5938 416.031 26.3125 416.328 26.9531C416.625 27.5938 417.039 28.1484 417.57 28.6172ZM416.445 43.8281C415.867 44.4844 415.578 45.2109 415.578 46.0078C415.578 46.8047 415.773 47.4844 416.164 48.0469C416.555 48.6094 417.07 49.0781 417.711 49.4531C418.945 50.1562 420.492 50.5078 422.352 50.5078C425.289 50.5078 427.336 49.7812 428.492 48.3281C428.867 47.8438 429.055 47.2344 429.055 46.5C429.055 45.7656 428.82 45.1406 428.352 44.625C427.898 44.1094 427.328 43.7109 426.641 43.4297C425.5 42.9609 424.016 42.7266 422.188 42.7266C419.375 42.7266 417.461 43.0938 416.445 43.8281ZM445.906 35.5547C445.906 36.6641 446.297 37.2188 447.078 37.2188C447.328 37.2188 447.648 37.1484 448.039 37.0078C448.758 36.7422 449.195 36.6094 449.352 36.6094C449.711 36.6094 449.992 36.8359 450.195 37.2891L450.922 38.9531C451.016 39.1875 451.062 39.4062 451.062 39.6094C451.062 39.9688 450.766 40.4062 450.172 40.9219C448.984 41.9062 447.43 42.3984 445.508 42.3984C442.008 42.3984 440.258 40.0625 440.258 35.3906V1.96875C440.258 1.54688 440.383 1.1875 440.633 0.890625C440.883 0.59375 441.18 0.445312 441.523 0.445312H444.664C445.023 0.445312 445.32 0.59375 445.555 0.890625C445.789 1.1875 445.906 1.54688 445.906 1.96875V35.5547ZM459.078 11.0391C458.016 11.0391 457.109 10.6719 456.359 9.9375C455.609 9.21875 455.234 8.3125 455.234 7.21875C455.234 6.15625 455.609 5.25 456.359 4.5C457.078 3.78125 457.984 3.42188 459.078 3.42188C460.75 3.42188 461.922 4.1875 462.594 5.71875C462.797 6.17187 462.898 6.67188 462.898 7.21875C462.898 8.3125 462.523 9.21875 461.773 9.9375C461.023 10.6719 460.125 11.0391 459.078 11.0391ZM461.82 35.5547C461.82 36.6641 462.188 37.2188 462.922 37.2188C463.172 37.2188 463.453 37.1484 463.766 37.0078C464.375 36.7422 464.789 36.6094 465.008 36.6094C465.336 36.6094 465.602 36.8359 465.805 37.2891L466.531 38.9297C466.656 39.1953 466.719 39.4453 466.719 39.6797C466.719 40.3516 466.141 40.9766 464.984 41.5547C463.891 42.1172 462.805 42.3984 461.727 42.3984C460.664 42.3984 459.812 42.2812 459.172 42.0469C458.531 41.8125 457.984 41.4219 457.531 40.875C456.625 39.75 456.172 37.9219 456.172 35.3906V17.1094C456.172 16.6719 456.297 16.3047 456.547 16.0078C456.797 15.7109 457.094 15.5625 457.438 15.5625H460.578C460.938 15.5625 461.234 15.7109 461.469 16.0078C461.703 16.3047 461.82 16.6719 461.82 17.1094V35.5547ZM491.633 37.7812C494.633 37.7812 496.133 36.7734 496.133 34.7578C496.133 33.6484 495.281 32.7109 493.578 31.9453C492.859 31.6172 492.07 31.3125 491.211 31.0312C490.367 30.75 489.555 30.4141 488.773 30.0234C487.992 29.6328 487.258 29.2109 486.57 28.7578C485.898 28.2891 485.312 27.7578 484.812 27.1641C483.781 25.9141 483.266 24.3281 483.266 22.4062C483.266 20.0625 484.242 18.2031 486.195 16.8281C487.93 15.5938 490.062 14.9766 492.594 14.9766C495.312 14.9766 497.586 15.5078 499.414 16.5703C500.039 16.9453 500.352 17.375 500.352 17.8594C500.352 18.5469 500.164 19.3047 499.789 20.1328C499.43 20.9453 499 21.3516 498.5 21.3516C498.016 21.3516 497.57 21.25 497.164 21.0469C496.773 20.8438 496.414 20.6719 496.086 20.5312C495.773 20.375 495.438 20.25 495.078 20.1562C494.297 19.9219 493.57 19.8047 492.898 19.8047C492.242 19.8047 491.711 19.8516 491.305 19.9453C490.898 20.0391 490.531 20.1875 490.203 20.3906C489.406 20.875 489.008 21.4688 489.008 22.1719C489.008 22.875 489.164 23.4141 489.477 23.7891C489.805 24.1641 490.25 24.5078 490.812 24.8203C491.375 25.1328 492.047 25.4453 492.828 25.7578L495.359 26.8125C497.406 27.7031 498.789 28.5078 499.508 29.2266C500.914 30.6641 501.617 32.3281 501.617 34.2188C501.617 36.5938 500.805 38.5469 499.18 40.0781C497.383 41.75 494.828 42.5859 491.516 42.5859C488.156 42.5859 485.633 41.9375 483.945 40.6406C483.117 40.0156 482.703 39.4531 482.703 38.9531C482.703 38.4531 482.789 38.0078 482.961 37.6172C483.148 37.2109 483.383 36.7422 483.664 36.2109C483.961 35.6641 484.352 35.3906 484.836 35.3906C485.336 35.3906 485.859 35.6172 486.406 36.0703C486.969 36.5078 487.734 36.9062 488.703 37.2656C489.672 37.6094 490.648 37.7812 491.633 37.7812ZM529.906 17.1562C529.719 19.8125 529.016 23.25 527.797 27.4688C526.078 33.4844 524.156 37.7734 522.031 40.3359C521.297 41.1953 520.555 41.7344 519.805 41.9531C519.055 42.1719 518.297 42.2812 517.531 42.2812C516.766 42.2812 516.102 42.1953 515.539 42.0234C514.977 41.8516 514.508 41.5859 514.133 41.2266C513.508 40.6172 512.945 39.4766 512.445 37.8047C511.414 34.3672 510.344 31.0078 509.234 27.7266L505.836 17.9297C505.711 17.5547 505.648 17.2344 505.648 16.9688C505.648 16.0312 506.258 15.5625 507.477 15.5625H509.609C510.156 15.5625 510.594 15.6875 510.922 15.9375C511.266 16.1719 511.555 16.6328 511.789 17.3203C513.82 23.3516 515.547 29.4531 516.969 35.625C517.141 36.4219 517.484 36.8203 518 36.8203C518.406 36.8203 518.781 36.4922 519.125 35.8359C520.812 32.6953 522.172 28 523.203 21.75C523.484 20.1094 523.688 18.8516 523.812 17.9766C523.953 17.1016 524.086 16.5625 524.211 16.3594C524.352 16.1562 524.508 16 524.68 15.8906C524.992 15.6719 525.336 15.5625 525.711 15.5625H528.406C529.406 15.5625 529.906 16.0938 529.906 17.1562ZM539.188 11.0391C538.125 11.0391 537.219 10.6719 536.469 9.9375C535.719 9.21875 535.344 8.3125 535.344 7.21875C535.344 6.15625 535.719 5.25 536.469 4.5C537.188 3.78125 538.094 3.42188 539.188 3.42188C540.859 3.42188 542.031 4.1875 542.703 5.71875C542.906 6.17187 543.008 6.67188 543.008 7.21875C543.008 8.3125 542.633 9.21875 541.883 9.9375C541.133 10.6719 540.234 11.0391 539.188 11.0391ZM541.93 35.5547C541.93 36.6641 542.297 37.2188 543.031 37.2188C543.281 37.2188 543.562 37.1484 543.875 37.0078C544.484 36.7422 544.898 36.6094 545.117 36.6094C545.445 36.6094 545.711 36.8359 545.914 37.2891L546.641 38.9297C546.766 39.1953 546.828 39.4453 546.828 39.6797C546.828 40.3516 546.25 40.9766 545.094 41.5547C544 42.1172 542.914 42.3984 541.836 42.3984C540.773 42.3984 539.922 42.2812 539.281 42.0469C538.641 41.8125 538.094 41.4219 537.641 40.875C536.734 39.75 536.281 37.9219 536.281 35.3906V17.1094C536.281 16.6719 536.406 16.3047 536.656 16.0078C536.906 15.7109 537.203 15.5625 537.547 15.5625H540.688C541.047 15.5625 541.344 15.7109 541.578 16.0078C541.812 16.3047 541.93 16.6719 541.93 17.1094V35.5547ZM558.078 35.5547C558.078 36.6641 558.469 37.2188 559.25 37.2188C559.5 37.2188 559.82 37.1484 560.211 37.0078C560.93 36.7422 561.367 36.6094 561.523 36.6094C561.883 36.6094 562.164 36.8359 562.367 37.2891L563.094 38.9531C563.188 39.1875 563.234 39.4062 563.234 39.6094C563.234 39.9688 562.938 40.4062 562.344 40.9219C561.156 41.9062 559.602 42.3984 557.68 42.3984C554.18 42.3984 552.43 40.0625 552.43 35.3906V1.96875C552.43 1.54688 552.555 1.1875 552.805 0.890625C553.055 0.59375 553.352 0.445312 553.695 0.445312H556.836C557.195 0.445312 557.492 0.59375 557.727 0.890625C557.961 1.1875 558.078 1.54688 558.078 1.96875V35.5547ZM592.086 40.4062C592.086 41.4688 591.602 42 590.633 42H589.578C588.641 42 588.023 41.625 587.727 40.875C587.398 40.0156 587.047 38.8203 586.672 37.2891C586.016 38.9297 584.898 40.2266 583.32 41.1797C581.758 42.1172 579.805 42.5859 577.461 42.5859C574.398 42.5859 572.141 41.6328 570.688 39.7266C569.234 37.8047 568.508 34.9766 568.508 31.2422V17.1094C568.508 16.6719 568.641 16.3047 568.906 16.0078C569.188 15.7109 569.578 15.5625 570.078 15.5625H572.656C573.688 15.5625 574.203 16.0781 574.203 17.1094V30.9844C574.203 34.7188 575.07 36.875 576.805 37.4531C577.367 37.6406 578.031 37.7344 578.797 37.7344C579.578 37.7344 580.375 37.5547 581.188 37.1953C582.016 36.8359 582.758 36.3594 583.414 35.7656C584.883 34.4062 585.617 32.8516 585.617 31.1016V17.1094C585.617 16.6719 585.75 16.3047 586.016 16.0078C586.281 15.7109 586.703 15.5625 587.281 15.5625H589.742C590.289 15.5625 590.688 15.7109 590.938 16.0078C591.188 16.3047 591.312 16.6719 591.312 17.1094V31.7578C591.312 35.0547 591.547 37.7109 592.016 39.7266C592.062 39.8984 592.086 40.125 592.086 40.4062ZM606.219 37.9453C606.375 39.5078 606.453 41.4609 606.453 43.8047V53.4844C606.453 54.6406 605.992 55.2188 605.07 55.2188H602.164C601.18 55.2188 600.688 54.6094 600.688 53.3906V27.4453C600.688 23.0547 600.453 19.8516 599.984 17.8359C599.938 17.6328 599.914 17.3516 599.914 16.9922C599.914 16.6328 600.055 16.3047 600.336 16.0078C600.633 15.7109 601.008 15.5625 601.461 15.5625H602.891C603.75 15.5625 604.359 15.9375 604.719 16.6875C605.141 17.5625 605.461 18.6953 605.68 20.0859C606.773 18.1797 608.266 16.7891 610.156 15.9141C611.5 15.2891 613.023 14.9766 614.727 14.9766C616.445 14.9766 617.977 15.3125 619.32 15.9844C620.664 16.6406 621.781 17.5469 622.672 18.7031C624.438 21 625.32 24.0781 625.32 27.9375C625.32 31.9688 624.328 35.375 622.344 38.1562C620.25 41.1094 617.508 42.5859 614.117 42.5859C610.586 42.5859 607.953 41.0391 606.219 37.9453ZM605.914 29.625C605.914 31.875 606.664 33.8125 608.164 35.4375C609.586 36.9688 611.195 37.7344 612.992 37.7344C615.258 37.7344 616.938 36.6328 618.031 34.4297C618.906 32.6797 619.344 30.4688 619.344 27.7969C619.344 25.6406 618.828 23.8125 617.797 22.3125C616.688 20.6875 615.211 19.875 613.367 19.875C611.289 19.875 609.516 20.7344 608.047 22.4531C606.625 24.1406 605.914 26.1016 605.914 28.3359V29.625ZM638.234 37.9453C638.391 39.5078 638.469 41.4609 638.469 43.8047V53.4844C638.469 54.6406 638.008 55.2188 637.086 55.2188H634.18C633.195 55.2188 632.703 54.6094 632.703 53.3906V27.4453C632.703 23.0547 632.469 19.8516 632 17.8359C631.953 17.6328 631.93 17.3516 631.93 16.9922C631.93 16.6328 632.07 16.3047 632.352 16.0078C632.648 15.7109 633.023 15.5625 633.477 15.5625H634.906C635.766 15.5625 636.375 15.9375 636.734 16.6875C637.156 17.5625 637.477 18.6953 637.695 20.0859C638.789 18.1797 640.281 16.7891 642.172 15.9141C643.516 15.2891 645.039 14.9766 646.742 14.9766C648.461 14.9766 649.992 15.3125 651.336 15.9844C652.68 16.6406 653.797 17.5469 654.688 18.7031C656.453 21 657.336 24.0781 657.336 27.9375C657.336 31.9688 656.344 35.375 654.359 38.1562C652.266 41.1094 649.523 42.5859 646.133 42.5859C642.602 42.5859 639.969 41.0391 638.234 37.9453ZM637.93 29.625C637.93 31.875 638.68 33.8125 640.18 35.4375C641.602 36.9688 643.211 37.7344 645.008 37.7344C647.273 37.7344 648.953 36.6328 650.047 34.4297C650.922 32.6797 651.359 30.4688 651.359 27.7969C651.359 25.6406 650.844 23.8125 649.812 22.3125C648.703 20.6875 647.227 19.875 645.383 19.875C643.305 19.875 641.531 20.7344 640.062 22.4531C638.641 24.1406 637.93 26.1016 637.93 28.3359V29.625ZM685.648 40.7578C685.648 41.5859 685.242 42 684.43 42H682.156C681.547 42 681.18 41.8828 681.055 41.6484C680.93 41.3984 680.859 41.1797 680.844 40.9922C680.828 40.7891 680.797 40.5469 680.75 40.2656C680.656 39.5 680.523 38.6719 680.352 37.7812C679.133 40.0156 677.219 41.4922 674.609 42.2109C673.688 42.4609 672.672 42.5859 671.562 42.5859C670.453 42.5859 669.344 42.3984 668.234 42.0234C667.125 41.6641 666.141 41.125 665.281 40.4062C663.344 38.7812 662.375 36.6484 662.375 34.0078C662.375 31.1172 663.438 28.9062 665.562 27.375C667.312 26.1406 669.562 25.5234 672.312 25.5234C675.062 25.5234 677.391 26.3281 679.297 27.9375C679.344 27.4062 679.367 26.7422 679.367 25.9453C679.367 25.1484 679.211 24.3516 678.898 23.5547C678.586 22.7578 678.141 22.0938 677.562 21.5625C676.375 20.5156 674.719 19.9922 672.594 19.9922C670.688 19.9922 668.75 20.5156 666.781 21.5625C666.406 21.7656 666.078 21.8672 665.797 21.8672C665.375 21.8672 664.969 21.4531 664.578 20.625C664.156 19.7812 663.945 19.1719 663.945 18.7969C663.945 18.1094 664.461 17.4453 665.492 16.8047C667.461 15.5859 670.094 14.9766 673.391 14.9766C676.391 14.9766 678.875 15.7969 680.844 17.4375C683.172 19.4062 684.336 22.1875 684.336 25.7812C684.336 27.375 684.078 29.3828 683.562 31.8047C684.891 35.5859 685.586 38.5703 685.648 40.7578ZM669.945 30.8203C669.305 31.2891 668.844 31.7578 668.562 32.2266C668.297 32.6953 668.164 33.25 668.164 33.8906C668.164 34.5156 668.273 35.0781 668.492 35.5781C668.727 36.0625 669.047 36.4688 669.453 36.7969C670.312 37.4688 671.273 37.8047 672.336 37.8047C673.414 37.8047 674.297 37.6797 674.984 37.4297C675.672 37.1797 676.266 36.8594 676.766 36.4688C677.844 35.625 678.383 34.7344 678.383 33.7969C678.289 32.625 677.641 31.7031 676.438 31.0312C675.359 30.4062 674.086 30.0938 672.617 30.0938C671.477 30.0938 670.586 30.3359 669.945 30.8203ZM706.742 19.125C706.742 20 706.25 20.4375 705.266 20.4375H698.656V35.1562C698.656 36.75 699.445 37.5469 701.023 37.5469C702.023 37.5469 703.328 37.0469 704.938 36.0469C705.25 35.8438 705.586 35.7422 705.945 35.7422C706.32 35.7422 706.617 36 706.836 36.5156L707.375 37.7344C707.578 38.2031 707.68 38.6016 707.68 38.9297C707.68 39.2578 707.43 39.6406 706.93 40.0781C706.445 40.5 705.82 40.8828 705.055 41.2266C703.32 42.0078 701.75 42.3984 700.344 42.3984C698.938 42.3984 697.82 42.2578 696.992 41.9766C696.18 41.6797 695.484 41.2422 694.906 40.6641C693.656 39.4453 693.031 37.6875 693.031 35.3906V20.4375H691.062C690.078 20.4375 689.586 19.9922 689.586 19.1016V17.7656C689.586 17.4062 689.68 17.125 689.867 16.9219C690.055 16.7188 690.422 16.5625 690.969 16.4531L693.312 15.7734L694.203 10.2656C694.375 9.23438 694.797 8.71875 695.469 8.71875H697.414C697.773 8.71875 698.07 8.86719 698.305 9.16406C698.539 9.44531 698.656 9.8125 698.656 10.2656V15.5625H705.266C706.25 15.5625 706.742 15.9922 706.742 16.8516V19.125ZM710.891 28.6875C710.891 26.6562 711.227 24.7969 711.898 23.1094C712.586 21.4062 713.523 19.9531 714.711 18.75C717.195 16.2344 720.328 14.9766 724.109 14.9766C728.344 14.9766 731.625 16.2344 733.953 18.75C736.203 21.1719 737.328 24.5 737.328 28.7344C737.328 32.8281 736.055 36.1719 733.508 38.7656C731.023 41.3125 727.891 42.5859 724.109 42.5859C720.125 42.5859 716.922 41.2812 714.5 38.6719C712.094 36.125 710.891 32.7969 710.891 28.6875ZM718.414 22.7344C717.836 23.5938 717.414 24.5781 717.148 25.6875C716.883 26.7812 716.75 27.8984 716.75 29.0391C716.75 30.1641 716.898 31.25 717.195 32.2969C717.508 33.3281 717.969 34.25 718.578 35.0625C719.922 36.8438 721.797 37.7344 724.203 37.7344C726.656 37.7344 728.516 36.8594 729.781 35.1094C730.906 33.5781 731.469 31.4922 731.469 28.8516C731.469 24.8984 730.172 22.1719 727.578 20.6719C726.625 20.125 725.469 19.8516 724.109 19.8516C722.766 19.8516 721.625 20.1172 720.688 20.6484C719.766 21.1641 719.008 21.8594 718.414 22.7344ZM743.82 17.25C743.82 16.125 744.312 15.5625 745.297 15.5625H746.562C747.422 15.5625 748.031 15.9375 748.391 16.6875C748.906 17.7812 749.281 19.2891 749.516 21.2109C749.516 21.2422 749.523 21.2578 749.539 21.2578C749.57 21.2578 749.625 20.9922 749.703 20.4609C749.781 19.9297 750.008 19.2812 750.383 18.5156C750.758 17.7344 751.219 17.0781 751.766 16.5469C752.875 15.5 754.234 14.9766 755.844 14.9766C757.641 14.9766 758.891 15.2734 759.594 15.8672C759.922 16.1328 760.055 16.5 759.992 16.9688L759.617 19.9219C759.523 20.7188 759.117 21.1172 758.398 21.1172C758.055 21.1172 757.633 21.0469 757.133 20.9062C756.164 20.6562 755.398 20.5312 754.836 20.5312C754.273 20.5312 753.68 20.7812 753.055 21.2812C752.43 21.7656 751.891 22.375 751.438 23.1094C750.516 24.6406 750.055 26.2734 750.055 28.0078V40.4531C750.055 40.8906 749.93 41.2578 749.68 41.5547C749.43 41.8516 749.07 42 748.602 42H745.883C745.383 42 745 41.8516 744.734 41.5547C744.484 41.2578 744.359 40.8906 744.359 40.4531V24.3047C744.359 21.5547 744.266 19.7422 744.078 18.8672C743.906 17.9766 743.82 17.4375 743.82 17.25ZM767.281 11.0391C766.219 11.0391 765.312 10.6719 764.562 9.9375C763.812 9.21875 763.438 8.3125 763.438 7.21875C763.438 6.15625 763.812 5.25 764.562 4.5C765.281 3.78125 766.188 3.42188 767.281 3.42188C768.953 3.42188 770.125 4.1875 770.797 5.71875C771 6.17187 771.102 6.67188 771.102 7.21875C771.102 8.3125 770.727 9.21875 769.977 9.9375C769.227 10.6719 768.328 11.0391 767.281 11.0391ZM770.023 35.5547C770.023 36.6641 770.391 37.2188 771.125 37.2188C771.375 37.2188 771.656 37.1484 771.969 37.0078C772.578 36.7422 772.992 36.6094 773.211 36.6094C773.539 36.6094 773.805 36.8359 774.008 37.2891L774.734 38.9297C774.859 39.1953 774.922 39.4453 774.922 39.6797C774.922 40.3516 774.344 40.9766 773.188 41.5547C772.094 42.1172 771.008 42.3984 769.93 42.3984C768.867 42.3984 768.016 42.2812 767.375 42.0469C766.734 41.8125 766.188 41.4219 765.734 40.875C764.828 39.75 764.375 37.9219 764.375 35.3906V17.1094C764.375 16.6719 764.5 16.3047 764.75 16.0078C765 15.7109 765.297 15.5625 765.641 15.5625H768.781C769.141 15.5625 769.438 15.7109 769.672 16.0078C769.906 16.3047 770.023 16.6719 770.023 17.1094V35.5547ZM798.359 37.9453C798.516 39.5078 798.594 41.4609 798.594 43.8047V53.4844C798.594 54.6406 798.133 55.2188 797.211 55.2188H794.305C793.32 55.2188 792.828 54.6094 792.828 53.3906V27.4453C792.828 23.0547 792.594 19.8516 792.125 17.8359C792.078 17.6328 792.055 17.3516 792.055 16.9922C792.055 16.6328 792.195 16.3047 792.477 16.0078C792.773 15.7109 793.148 15.5625 793.602 15.5625H795.031C795.891 15.5625 796.5 15.9375 796.859 16.6875C797.281 17.5625 797.602 18.6953 797.82 20.0859C798.914 18.1797 800.406 16.7891 802.297 15.9141C803.641 15.2891 805.164 14.9766 806.867 14.9766C808.586 14.9766 810.117 15.3125 811.461 15.9844C812.805 16.6406 813.922 17.5469 814.812 18.7031C816.578 21 817.461 24.0781 817.461 27.9375C817.461 31.9688 816.469 35.375 814.484 38.1562C812.391 41.1094 809.648 42.5859 806.258 42.5859C802.727 42.5859 800.094 41.0391 798.359 37.9453ZM798.055 29.625C798.055 31.875 798.805 33.8125 800.305 35.4375C801.727 36.9688 803.336 37.7344 805.133 37.7344C807.398 37.7344 809.078 36.6328 810.172 34.4297C811.047 32.6797 811.484 30.4688 811.484 27.7969C811.484 25.6406 810.969 23.8125 809.938 22.3125C808.828 20.6875 807.352 19.875 805.508 19.875C803.43 19.875 801.656 20.7344 800.188 22.4531C798.766 24.1406 798.055 26.1016 798.055 28.3359V29.625ZM827.375 11.0391C826.312 11.0391 825.406 10.6719 824.656 9.9375C823.906 9.21875 823.531 8.3125 823.531 7.21875C823.531 6.15625 823.906 5.25 824.656 4.5C825.375 3.78125 826.281 3.42188 827.375 3.42188C829.047 3.42188 830.219 4.1875 830.891 5.71875C831.094 6.17187 831.195 6.67188 831.195 7.21875C831.195 8.3125 830.82 9.21875 830.07 9.9375C829.32 10.6719 828.422 11.0391 827.375 11.0391ZM830.117 35.5547C830.117 36.6641 830.484 37.2188 831.219 37.2188C831.469 37.2188 831.75 37.1484 832.062 37.0078C832.672 36.7422 833.086 36.6094 833.305 36.6094C833.633 36.6094 833.898 36.8359 834.102 37.2891L834.828 38.9297C834.953 39.1953 835.016 39.4453 835.016 39.6797C835.016 40.3516 834.438 40.9766 833.281 41.5547C832.188 42.1172 831.102 42.3984 830.023 42.3984C828.961 42.3984 828.109 42.2812 827.469 42.0469C826.828 41.8125 826.281 41.4219 825.828 40.875C824.922 39.75 824.469 37.9219 824.469 35.3906V17.1094C824.469 16.6719 824.594 16.3047 824.844 16.0078C825.094 15.7109 825.391 15.5625 825.734 15.5625H828.875C829.234 15.5625 829.531 15.7109 829.766 16.0078C830 16.3047 830.117 16.6719 830.117 17.1094V35.5547ZM847.883 37.7812C850.883 37.7812 852.383 36.7734 852.383 34.7578C852.383 33.6484 851.531 32.7109 849.828 31.9453C849.109 31.6172 848.32 31.3125 847.461 31.0312C846.617 30.75 845.805 30.4141 845.023 30.0234C844.242 29.6328 843.508 29.2109 842.82 28.7578C842.148 28.2891 841.562 27.7578 841.062 27.1641C840.031 25.9141 839.516 24.3281 839.516 22.4062C839.516 20.0625 840.492 18.2031 842.445 16.8281C844.18 15.5938 846.312 14.9766 848.844 14.9766C851.562 14.9766 853.836 15.5078 855.664 16.5703C856.289 16.9453 856.602 17.375 856.602 17.8594C856.602 18.5469 856.414 19.3047 856.039 20.1328C855.68 20.9453 855.25 21.3516 854.75 21.3516C854.266 21.3516 853.82 21.25 853.414 21.0469C853.023 20.8438 852.664 20.6719 852.336 20.5312C852.023 20.375 851.688 20.25 851.328 20.1562C850.547 19.9219 849.82 19.8047 849.148 19.8047C848.492 19.8047 847.961 19.8516 847.555 19.9453C847.148 20.0391 846.781 20.1875 846.453 20.3906C845.656 20.875 845.258 21.4688 845.258 22.1719C845.258 22.875 845.414 23.4141 845.727 23.7891C846.055 24.1641 846.5 24.5078 847.062 24.8203C847.625 25.1328 848.297 25.4453 849.078 25.7578L851.609 26.8125C853.656 27.7031 855.039 28.5078 855.758 29.2266C857.164 30.6641 857.867 32.3281 857.867 34.2188C857.867 36.5938 857.055 38.5469 855.43 40.0781C853.633 41.75 851.078 42.5859 847.766 42.5859C844.406 42.5859 841.883 41.9375 840.195 40.6406C839.367 40.0156 838.953 39.4531 838.953 38.9531C838.953 38.4531 839.039 38.0078 839.211 37.6172C839.398 37.2109 839.633 36.7422 839.914 36.2109C840.211 35.6641 840.602 35.3906 841.086 35.3906C841.586 35.3906 842.109 35.6172 842.656 36.0703C843.219 36.5078 843.984 36.9062 844.953 37.2656C845.922 37.6094 846.898 37.7812 847.883 37.7812ZM885.805 40.7578C885.805 41.5859 885.398 42 884.586 42H882.312C881.703 42 881.336 41.8828 881.211 41.6484C881.086 41.3984 881.016 41.1797 881 40.9922C880.984 40.7891 880.953 40.5469 880.906 40.2656C880.812 39.5 880.68 38.6719 880.508 37.7812C879.289 40.0156 877.375 41.4922 874.766 42.2109C873.844 42.4609 872.828 42.5859 871.719 42.5859C870.609 42.5859 869.5 42.3984 868.391 42.0234C867.281 41.6641 866.297 41.125 865.438 40.4062C863.5 38.7812 862.531 36.6484 862.531 34.0078C862.531 31.1172 863.594 28.9062 865.719 27.375C867.469 26.1406 869.719 25.5234 872.469 25.5234C875.219 25.5234 877.547 26.3281 879.453 27.9375C879.5 27.4062 879.523 26.7422 879.523 25.9453C879.523 25.1484 879.367 24.3516 879.055 23.5547C878.742 22.7578 878.297 22.0938 877.719 21.5625C876.531 20.5156 874.875 19.9922 872.75 19.9922C870.844 19.9922 868.906 20.5156 866.938 21.5625C866.562 21.7656 866.234 21.8672 865.953 21.8672C865.531 21.8672 865.125 21.4531 864.734 20.625C864.312 19.7812 864.102 19.1719 864.102 18.7969C864.102 18.1094 864.617 17.4453 865.648 16.8047C867.617 15.5859 870.25 14.9766 873.547 14.9766C876.547 14.9766 879.031 15.7969 881 17.4375C883.328 19.4062 884.492 22.1875 884.492 25.7812C884.492 27.375 884.234 29.3828 883.719 31.8047C885.047 35.5859 885.742 38.5703 885.805 40.7578ZM870.102 30.8203C869.461 31.2891 869 31.7578 868.719 32.2266C868.453 32.6953 868.32 33.25 868.32 33.8906C868.32 34.5156 868.43 35.0781 868.648 35.5781C868.883 36.0625 869.203 36.4688 869.609 36.7969C870.469 37.4688 871.43 37.8047 872.492 37.8047C873.57 37.8047 874.453 37.6797 875.141 37.4297C875.828 37.1797 876.422 36.8594 876.922 36.4688C878 35.625 878.539 34.7344 878.539 33.7969C878.445 32.625 877.797 31.7031 876.594 31.0312C875.516 30.4062 874.242 30.0938 872.773 30.0938C871.633 30.0938 870.742 30.3359 870.102 30.8203ZM892.578 17.25C892.578 16.125 893.117 15.5625 894.195 15.5625H895.484C896.359 15.5625 896.953 15.8906 897.266 16.5469C897.703 17.4844 898.078 18.7188 898.391 20.25C899.797 17.6875 901.891 16.0469 904.672 15.3281C905.547 15.0938 906.633 14.9766 907.93 14.9766C909.242 14.9766 910.453 15.2578 911.562 15.8203C912.672 16.3672 913.547 17.125 914.188 18.0938C915.375 19.8594 915.969 22.4609 915.969 25.8984V40.4531C915.969 40.8906 915.828 41.2578 915.547 41.5547C915.266 41.8516 914.852 42 914.305 42H912.008C911.414 42 910.977 41.8516 910.695 41.5547C910.414 41.2578 910.273 40.8906 910.273 40.4531V25.875C910.273 21.875 908.805 19.875 905.867 19.875C904.148 19.875 902.578 20.5938 901.156 22.0312C899.641 23.5781 898.883 25.375 898.883 27.4219V40.4531C898.883 40.8906 898.75 41.2578 898.484 41.5547C898.219 41.8516 897.812 42 897.266 42H894.852C894.305 42 893.891 41.8516 893.609 41.5547C893.328 41.2578 893.188 40.8906 893.188 40.4531V26.0625C893.188 22.9219 893.086 20.7344 892.883 19.5C892.68 18.25 892.578 17.5 892.578 17.25ZM927.406 11.0391C926.344 11.0391 925.438 10.6719 924.688 9.9375C923.938 9.21875 923.562 8.3125 923.562 7.21875C923.562 6.15625 923.938 5.25 924.688 4.5C925.406 3.78125 926.312 3.42188 927.406 3.42188C929.078 3.42188 930.25 4.1875 930.922 5.71875C931.125 6.17187 931.227 6.67188 931.227 7.21875C931.227 8.3125 930.852 9.21875 930.102 9.9375C929.352 10.6719 928.453 11.0391 927.406 11.0391ZM930.148 35.5547C930.148 36.6641 930.516 37.2188 931.25 37.2188C931.5 37.2188 931.781 37.1484 932.094 37.0078C932.703 36.7422 933.117 36.6094 933.336 36.6094C933.664 36.6094 933.93 36.8359 934.133 37.2891L934.859 38.9297C934.984 39.1953 935.047 39.4453 935.047 39.6797C935.047 40.3516 934.469 40.9766 933.312 41.5547C932.219 42.1172 931.133 42.3984 930.055 42.3984C928.992 42.3984 928.141 42.2812 927.5 42.0469C926.859 41.8125 926.312 41.4219 925.859 40.875C924.953 39.75 924.5 37.9219 924.5 35.3906V17.1094C924.5 16.6719 924.625 16.3047 924.875 16.0078C925.125 15.7109 925.422 15.5625 925.766 15.5625H928.906C929.266 15.5625 929.562 15.7109 929.797 16.0078C930.031 16.3047 930.148 16.6719 930.148 17.1094V35.5547Z" fill="#4A6163"/>
</svg>
